<?xml version="1.0" encoding="UTF-8"?>
<svg width="16px" height="16px" viewBox="0 0 16 16" version="1.1" xmlns="http://www.w3.org/2000/svg" xmlns:xlink="http://www.w3.org/1999/xlink">
    <title>file_type_nginx</title>
    <g id="file_type_nginx" stroke="none" stroke-width="1" fill="none" fill-rule="evenodd">
        <path d="M7.74420629,1.05011928 C7.94123091,0.969928433 8.16559544,0.985966602 8.3516841,1.09823379 L8.3516841,1.09823379 L13.6478121,4.23647202 C13.8669796,4.36405483 14.0016582,4.60342677 13.9997643,4.86201654 L13.9997643,4.86201654 L13.9999492,11.1383238 C14.0018436,11.3968296 13.8672289,11.6361357 13.6481436,11.7636972 L13.6481436,11.7636972 L8.35201376,14.9017663 C8.13473326,15.0327446 7.86539176,15.0327446 7.64811126,14.9017663 L7.64811126,14.9017663 L7.64794642,14.9019355 L2.3519833,11.7638664 C2.2441827,11.7014398 2.15475643,11.6103648 2.09310191,11.500212 L2.09310191,11.500212 C2.03092965,11.3903068 1.99884189,11.2653182 1.9999992,11.1383238 L1.9999992,11.1383238 L1.9999992,4.86218571 L2.00758816,4.75261756 C2.03850134,4.5372554 2.16436145,4.34575066 2.35231296,4.23647202 L2.35231296,4.23647202 L7.64827609,1.09840295 Z M5.716314,4.91197735 C5.2630267,4.91197735 4.94298163,5.21940528 4.94298163,5.59113436 L4.94298163,5.59113436 L4.94232041,10.3895165 L4.94837123,10.4841966 C4.99347063,10.8253829 5.27843412,11.0883533 5.62324319,11.0883533 C5.99939854,11.0883533 6.30433269,10.7753968 6.30433269,10.3893454 L6.30400114,10.3895204 L6.30400114,6.91433155 L9.35518126,10.6618237 C9.58868713,10.9368458 9.92817532,11.0926324 10.2835799,11.0878536 C10.7367023,11.0878536 11.0569122,10.7804276 11.0569122,10.4086966 L11.0569122,10.4086966 L11.0575735,5.61065474 L11.0513807,5.51592218 C11.0058272,5.17518636 10.7210522,4.91281263 10.3766497,4.91281263 C10.0009379,4.91281263 9.69618781,5.22505906 9.69556118,5.61065474 L9.69556118,5.61065474 L9.69589084,9.08549743 L6.8505203,5.59079992 L6.64471262,5.33800726 C6.41114011,5.06307754 6.07169589,4.90731105 5.716314,4.91197735 Z" id="Combined-Shape" fill="#92BD79" fill-rule="nonzero"></path>
    </g>
</svg>