<?xml version="1.0" encoding="UTF-8"?>
<svg width="16px" height="16px" viewBox="0 0 16 16" version="1.1" xmlns="http://www.w3.org/2000/svg" xmlns:xlink="http://www.w3.org/1999/xlink">
    <title>file_type_prettier</title>
    <defs>
        <path d="M10.6988571,12 L1.30114286,12 C0.582857143,11.9991429 0.000857142857,11.4171429 0,10.6988571 L0,1.30114286 C0.000857142857,0.582857143 0.582857143,0.000857142857 1.30114286,0 L10.6988571,0 C11.4171429,0.000857142857 11.9991429,0.582857143 12,1.30114286 L12,10.6988571 C11.9991429,11.4171429 11.4171429,11.9991429 10.6988571,12 Z" id="path-1"></path>
    </defs>
    <g id="file_type_prettier" stroke="none" stroke-width="1" fill="none" fill-rule="evenodd">
        <g id="Group-2" transform="translate(2.000000, 2.000000)">
            <mask id="mask-2" fill="white">
                <use xlink:href="#path-1"></use>
            </mask>
            <use id="Combined-Shape-Copy-2" fill="#1A2B34" fill-rule="nonzero" opacity="0" xlink:href="#path-1"></use>
            <g id="file_type_prettier_icon_130235" mask="url(#mask-2)" fill="#D9A357" fill-rule="nonzero">
                <g transform="translate(0.857142, -0.000000)" id="Combined-Shape">
                    <path d="M3.14250064,11.4285 C3.2776526,11.4285 3.39087058,11.5224106 3.42046037,11.6485375 L3.42800062,11.714 C3.42800062,11.8716773 3.30017793,11.9995 3.14250064,11.9995 L0.285500853,11.9995 C0.150516086,11.9995 0.0373813192,11.9058133 0.00763793311,11.7798734 L4.35573384e-07,11.7145 C-0.00013188606,11.6386941 0.0298888711,11.5659476 0.0834448994,11.5122977 C0.137000928,11.4586479 0.209694841,11.4285 0.285500853,11.4285 L3.14250064,11.4285 Z M3.14300064,10.2855001 C3.2781526,10.2855001 3.39137058,10.3794107 3.42096037,10.5055376 L3.42850062,10.5710001 C3.42850062,10.6467194 3.39842125,10.7193374 3.34487962,10.7728791 C3.29133798,10.8264207 3.21871995,10.8565001 3.14300064,10.8565001 L2.57150069,10.8565001 C2.49578138,10.8565001 2.42316335,10.8264207 2.36962171,10.7728791 C2.33392729,10.7371847 2.30866054,10.6930118 2.29578209,10.645094 L2.28600071,10.5710001 C2.28600071,10.4133228 2.4138234,10.2855001 2.57150069,10.2855001 L3.14300064,10.2855001 Z M1.42850077,10.2855001 C1.56365273,10.2855001 1.6768707,10.3794107 1.70646049,10.5055376 L1.71400075,10.5710001 C1.71400075,10.6467194 1.68392137,10.7193374 1.63037974,10.7728791 C1.57683811,10.8264207 1.50422007,10.8565001 1.42850077,10.8565001 L0.285500853,10.8565001 C0.150516086,10.8565001 0.0373813192,10.7628134 0.00763793311,10.6368734 L4.35573384e-07,10.5715001 C-0.00013188606,10.4956942 0.0298888711,10.4229477 0.0834448994,10.3692978 C0.137000928,10.315648 0.209694841,10.2855001 0.285500853,10.2855001 L1.42850077,10.2855001 Z M3.14250064,9.14300021 C3.2776526,9.14300021 3.39087058,9.23691076 3.42046037,9.36303766 L3.42800062,9.42850019 C3.42800062,9.58617747 3.30017793,9.71400016 3.14250064,9.71400016 L0.285500853,9.71400016 C0.150348895,9.71400016 0.0371309213,9.62008961 0.007541132,9.49396271 L8.74031684e-07,9.42850019 C8.74031684e-07,9.2708229 0.127823569,9.14300021 0.285500853,9.14300021 L3.14250064,9.14300021 Z M7.14300035,8.00000029 C7.21871965,8.00000029 7.29133769,8.03007967 7.34487932,8.0836213 C7.38057374,8.11931572 7.4058405,8.16348854 7.41871895,8.21140639 L7.42850033,8.28550027 C7.42850033,8.44317755 7.30067764,8.57100025 7.14300035,8.57100025 L2.00000073,8.57100025 C1.86484877,8.57100025 1.7516308,8.4770897 1.72204101,8.35096279 L1.71450075,8.28550027 C1.71450075,8.20978097 1.74458012,8.13716293 1.79812176,8.0836213 C1.85166339,8.03007967 1.92428143,8.00000029 2.00000073,8.00000029 L7.14300035,8.00000029 Z M0.857000811,8.00000029 C0.932720114,8.00000029 1.00533815,8.03007967 1.05887978,8.0836213 C1.0945742,8.11931572 1.11984096,8.16348854 1.13271941,8.21140639 L1.14250079,8.28550027 C1.14250079,8.44317755 1.0146781,8.57100025 0.857000811,8.57100025 L0.285500853,8.57100025 C0.150348895,8.57100025 0.0371309213,8.4770897 0.007541132,8.35096279 L8.74031684e-07,8.28550027 C8.74031684e-07,8.20978097 0.0300802498,8.13716293 0.0836218819,8.0836213 C0.137163514,8.03007967 0.209781551,8.00000029 0.285500853,8.00000029 L0.857000811,8.00000029 Z M8.85750037,6.85700037 C8.99265221,6.85700037 9.10587016,6.95091092 9.13545995,7.07703783 L9.14300021,7.14250035 C9.14300021,7.30017764 9.01517751,7.42800033 8.85750037,7.42800033 L7.14300035,7.42800033 C7.00784839,7.42800033 6.89463042,7.33408978 6.86504063,7.20796288 L6.85750037,7.14250035 C6.85750037,6.98482307 6.98532307,6.85700037 7.14300035,6.85700037 L8.85750037,6.85700037 Z M6.00000044,6.85700037 C6.13515239,6.85700037 6.24837037,6.95091092 6.27796016,7.07703783 L6.28550041,7.14250035 C6.28550041,7.30017764 6.15767772,7.42800033 6.00000044,7.42800033 L3.7145006,7.42800033 C3.57934864,7.42800033 3.46613067,7.33408978 3.43654088,7.20796288 L3.42900062,7.14250035 C3.42900062,6.98482307 3.55682332,6.85700037 3.7145006,6.85700037 L6.00000044,6.85700037 Z M2.57150069,6.85700037 C2.70665264,6.85700037 2.81987062,6.95091092 2.84946041,7.07703783 L2.85700067,7.14250035 C2.85700067,7.30017764 2.72917797,7.42800033 2.57150069,7.42800033 L0.285500853,7.42800033 C0.150516086,7.42800033 0.0373813192,7.33431364 0.00763793311,7.20837369 L4.35573384e-07,7.14300035 C-0.00013188606,7.06719446 0.0298888711,6.9944479 0.0834448994,6.94079808 C0.137000928,6.88714826 0.209694841,6.85700037 0.285500853,6.85700037 L2.57150069,6.85700037 Z M9.42850019,5.71450046 C9.56365214,5.71450046 9.67687012,5.80841101 9.70645991,5.93453791 L9.71400016,6.00000044 C9.71400016,6.15767772 9.58617747,6.28550041 9.42850019,6.28550041 L4.85700052,6.28550041 C4.72184856,6.28550041 4.60863059,6.19158986 4.5790408,6.06546296 L4.57150054,6.00000044 C4.57150054,5.92428113 4.60157992,5.8516631 4.65512155,5.79812146 C4.70866318,5.74457983 4.78128122,5.71450046 4.85700052,5.71450046 L9.42850019,5.71450046 Z M3.71450075,5.71450046 C3.84965258,5.71450046 3.96287054,5.80841101 3.99246032,5.93453791 L4.00000058,6.00000044 C4.00000058,6.15767772 3.87217789,6.28550041 3.71450075,6.28550041 L2.00000073,6.28550041 C1.86484877,6.28550041 1.7516308,6.19158986 1.72204101,6.06546296 L1.71450075,6.00000044 C1.71450075,5.84232315 1.84232344,5.71450046 2.00000073,5.71450046 L3.71450075,5.71450046 Z M0.857000811,5.71450002 C0.932806708,5.7143677 1.00555326,5.74438845 1.05920308,5.79794448 C1.09496963,5.8336485 1.12029087,5.87785825 1.13319764,5.92582534 L1.14300079,6.00000044 C1.14300079,6.15767772 1.0151781,6.28550041 0.857500811,6.28550041 L0.285500853,6.28550041 C0.150348895,6.28550041 0.0371309213,6.19158986 0.007541132,6.06546296 L8.74031684e-07,6.00000044 C8.74031684e-07,5.84232315 0.127823569,5.71450002 0.285500853,5.71450002 L0.857000811,5.71450002 Z M3.14250064,4.57150054 C3.2776526,4.57150054 3.39087058,4.66541109 3.42046037,4.79153799 L3.42800062,4.85700052 C3.42800062,5.0146778 3.30017793,5.1425005 3.14250064,5.1425005 L0.285500853,5.1425005 C0.150348895,5.1425005 0.0371309213,5.04858995 0.007541132,4.92246304 L8.74031684e-07,4.85700052 C8.74031684e-07,4.69932323 0.127823569,4.57150054 0.285500853,4.57150054 L3.14250064,4.57150054 Z M10.0000001,4.57150054 C10.1351521,4.57150054 10.2483701,4.66541109 10.2779599,4.79153799 L10.2855001,4.85700052 C10.2855001,5.0146778 10.1576774,5.1425005 10.0000001,5.1425005 L7.14300035,5.1425005 C7.00784839,5.1425005 6.89463042,5.04858995 6.86504063,4.92246304 L6.85750037,4.85700052 C6.85750037,4.69932323 6.98532307,4.57150054 7.14300035,4.57150054 L10.0000001,4.57150054 Z M3.14300064,3.42850062 C3.2781526,3.42850062 3.39137058,3.52241117 3.42096037,3.64853808 L3.42850062,3.7140006 C3.42850062,3.87167789 3.30067793,3.99950058 3.14300064,3.99950058 L2.57150069,3.99950058 C2.43634873,3.99950058 2.32313075,3.90559003 2.29354096,3.77946313 L2.28600071,3.7140006 C2.28600071,3.55632332 2.4138234,3.42850062 2.57150069,3.42850062 L3.14300064,3.42850062 Z M1.42850077,3.42850062 C1.56365273,3.42850062 1.67687102,3.52241117 1.7064609,3.64853808 L1.71400119,3.7140006 C1.71413351,3.7898065 1.68411275,3.86255305 1.63055672,3.91620287 C1.5770007,3.9698527 1.50430678,4.00000058 1.42850077,4.00000058 L0.285500853,4.00000058 C0.150348895,4.00000058 0.0371305991,3.90609003 0.00754071783,3.77996313 L4.35573384e-07,3.7145006 C-0.00013188606,3.63869471 0.0298888711,3.56594815 0.0834448994,3.51229833 C0.137000928,3.45864851 0.209694841,3.42850062 0.285500853,3.42850062 L1.42850077,3.42850062 Z M10.0000001,3.42850062 C10.1351521,3.42850062 10.2483704,3.52241117 10.2779603,3.64853808 L10.2855006,3.7140006 C10.2856329,3.7898065 10.2556121,3.86255305 10.2020561,3.91620287 C10.1485001,3.9698527 10.0758062,4.00000058 10.0000001,4.00000058 L7.14300035,4.00000058 C7.00784839,4.00000058 6.8946301,3.90609003 6.86504022,3.77996313 L6.85749993,3.7145006 C6.85736761,3.63869471 6.88738837,3.56594815 6.9409444,3.51229833 C6.99450043,3.45864851 7.06719434,3.42850062 7.14300035,3.42850062 L10.0000001,3.42850062 Z M9.42850019,2.28550071 C9.56365214,2.28550071 9.67687012,2.37941126 9.70645991,2.50553816 L9.71400016,2.57100069 C9.71400016,2.72867797 9.58617747,2.85650067 9.42850019,2.85650067 L8.85700023,2.85650067 C8.72184827,2.85650067 8.60863029,2.76259011 8.57904051,2.63646321 L8.57150025,2.57100069 C8.57150025,2.4133234 8.69932294,2.28550071 8.85700023,2.28550071 L9.42850019,2.28550071 Z M7.71400031,2.28550027 C7.78989292,2.28536768 7.86271546,2.31545701 7.91637972,2.36912128 C7.9521559,2.40489745 7.97745433,2.44918841 7.99030553,2.49722729 L8.00000073,2.57150069 C8.00000073,2.72917797 7.87217759,2.85700067 7.71450031,2.85700067 L5.42850048,2.85700067 C5.29334852,2.85700067 5.18013022,2.76309011 5.15054034,2.63696321 L5.14300006,2.57150069 C5.14286774,2.49569479 5.1728885,2.42294824 5.22644452,2.36929841 C5.28000055,2.31564859 5.35269446,2.28550027 5.42850048,2.28550027 L7.71400031,2.28550027 Z M4.28550056,2.28550071 C4.42065252,2.28550071 4.53387049,2.37941126 4.56346028,2.50553816 L4.57100054,2.57100069 C4.57100054,2.72867797 4.44317785,2.85650067 4.28550056,2.85650067 L0.285500853,2.85650067 C0.150516086,2.85650067 0.0373813192,2.76281398 0.00763793311,2.63687402 L4.35573384e-07,2.57150069 C-0.00013188606,2.49569479 0.0298888711,2.42294824 0.0834448994,2.36929841 C0.137000928,2.31564859 0.209694841,2.28550071 0.285500853,2.28550071 L4.28550056,2.28550071 Z M2.00000044,1.14300079 C2.13515264,1.14300079 2.24837098,1.23691134 2.27796086,1.36303824 L2.28550115,1.42850077 C2.28563347,1.50430667 2.25561271,1.57705322 2.20205668,1.63070304 C2.14850065,1.68435286 2.07580674,1.71450075 2.00000044,1.71450075 L0.285500853,1.71450075 C0.209694841,1.71450075 0.137000928,1.68435286 0.0834448994,1.63070304 C0.0477408805,1.59493649 0.0224969822,1.55068251 0.00967403621,1.50269291 L4.35573384e-07,1.42850077 C4.35573384e-07,1.27082349 0.127823569,1.14300079 0.285500853,1.14300079 L2.00000044,1.14300079 Z M8.85700023,1.14300079 C8.99215218,1.14300079 9.10537016,1.23691134 9.13495995,1.36303824 L9.14250021,1.42850077 C9.14250021,1.58617805 9.01467751,1.71400075 8.85700023,1.71400075 L3.14300064,1.71400075 C3.00784869,1.71400075 2.89463071,1.6200902 2.86504092,1.4939633 L2.85750067,1.42850077 C2.85750067,1.27082349 2.98532336,1.14300079 3.14300064,1.14300079 L8.85700023,1.14300079 Z M7.14300035,8.74031457e-07 C7.27815231,8.74031457e-07 7.39137028,0.0939114252 7.42096007,0.220038327 L7.42850033,0.285500853 C7.42850033,0.443178138 7.30067764,0.571000832 7.14300035,0.571000832 L0.285500853,0.571000832 C0.150348895,0.571000832 0.0371309213,0.477090281 0.007541132,0.350963379 L8.74031684e-07,0.285500853 C8.74031684e-07,0.127823569 0.127823569,8.74031457e-07 0.285500853,8.74031457e-07 L7.14300035,8.74031457e-07 Z"></path>
                </g>
            </g>
        </g>
    </g>
</svg>